<?xml version="1.0" encoding="UTF-8"?>
<svg version="1.1" xmlns="http://www.w3.org/2000/svg" width="160" height="160">
<path d="M0 0 C52.8 0 105.6 0 160 0 C160 52.8 160 105.6 160 160 C107.2 160 54.4 160 0 160 C0 107.2 0 54.4 0 0 Z " fill="#8A8A8A" transform="translate(0,0)"/>
<path d="M0 0 C1.98 0 3.96 0 6 0 C6 3.3 6 6.6 6 10 C9.3 10 12.6 10 16 10 C16.33 9.01 16.66 8.02 17 7 C19.45862401 6.94616152 21.9160755 6.90640962 24.375 6.875 C25.42300781 6.84986328 25.42300781 6.84986328 26.4921875 6.82421875 C28.32897486 6.80655733 30.16601963 6.89696739 32 7 C32.66 7.66 33.32 8.32 34 9 C36.36509361 9.30059943 38.74441881 9.49515012 41.125 9.625 C42.40632813 9.69976562 43.68765625 9.77453125 45.0078125 9.8515625 C46.48894531 9.92503906 46.48894531 9.92503906 48 10 C48.33 9.01 48.66 8.02 49 7 C51.45862401 6.94616152 53.9160755 6.90640962 56.375 6.875 C57.42300781 6.84986328 57.42300781 6.84986328 58.4921875 6.82421875 C60.32897486 6.80655733 62.16601963 6.89696739 64 7 C64.99 7.99 64.99 7.99 66 9 C68.36509361 9.30059943 70.74441881 9.49515012 73.125 9.625 C74.40632813 9.69976562 75.68765625 9.77453125 77.0078125 9.8515625 C78.48894531 9.92503906 78.48894531 9.92503906 80 10 C80.33 9.01 80.66 8.02 81 7 C83.45862401 6.94616152 85.9160755 6.90640962 88.375 6.875 C89.42300781 6.84986328 89.42300781 6.84986328 90.4921875 6.82421875 C92.32897486 6.80655733 94.16601963 6.89696739 96 7 C96.99 7.99 96.99 7.99 98 9 C100.36509361 9.30059943 102.74441881 9.49515012 105.125 9.625 C106.40632813 9.69976562 107.68765625 9.77453125 109.0078125 9.8515625 C110.48894531 9.92503906 110.48894531 9.92503906 112 10 C112.33 9.01 112.66 8.02 113 7 C115.45862401 6.94616152 117.9160755 6.90640962 120.375 6.875 C121.42300781 6.84986328 121.42300781 6.84986328 122.4921875 6.82421875 C124.32897486 6.80655733 126.16601963 6.89696739 128 7 C128.99 7.99 128.99 7.99 130 9 C132.36509361 9.30059943 134.74441881 9.49515012 137.125 9.625 C138.40632812 9.69976562 139.68765625 9.77453125 141.0078125 9.8515625 C142.48894531 9.92503906 142.48894531 9.92503906 144 10 C144.33 9.01 144.66 8.02 145 7 C147.97 7 150.94 7 154 7 C154 4.69 154 2.38 154 0 C155.98 0 157.96 0 160 0 C160 23.43 160 46.86 160 71 C107.2 71 54.4 71 0 71 C0 47.57 0 24.14 0 0 Z " fill="#254A7A" transform="translate(0,89)"/>
<path d="M0 0 C1.98 0 3.96 0 6 0 C6 3.3 6 6.6 6 10 C9.3 10 12.6 10 16 10 C16.33 9.01 16.66 8.02 17 7 C19.45862401 6.94616152 21.9160755 6.90640962 24.375 6.875 C25.42300781 6.84986328 25.42300781 6.84986328 26.4921875 6.82421875 C28.32897486 6.80655733 30.16601963 6.89696739 32 7 C32.66 7.66 33.32 8.32 34 9 C36.36509361 9.30059943 38.74441881 9.49515012 41.125 9.625 C42.40632813 9.69976562 43.68765625 9.77453125 45.0078125 9.8515625 C46.48894531 9.92503906 46.48894531 9.92503906 48 10 C48.33 9.01 48.66 8.02 49 7 C51.45862401 6.94616152 53.9160755 6.90640962 56.375 6.875 C57.42300781 6.84986328 57.42300781 6.84986328 58.4921875 6.82421875 C60.32897486 6.80655733 62.16601963 6.89696739 64 7 C64.99 7.99 64.99 7.99 66 9 C68.36509361 9.30059943 70.74441881 9.49515012 73.125 9.625 C74.40632813 9.69976562 75.68765625 9.77453125 77.0078125 9.8515625 C78.48894531 9.92503906 78.48894531 9.92503906 80 10 C80.33 9.01 80.66 8.02 81 7 C83.45862401 6.94616152 85.9160755 6.90640962 88.375 6.875 C89.42300781 6.84986328 89.42300781 6.84986328 90.4921875 6.82421875 C92.32897486 6.80655733 94.16601963 6.89696739 96 7 C96.99 7.99 96.99 7.99 98 9 C100.36509361 9.30059943 102.74441881 9.49515012 105.125 9.625 C106.40632813 9.69976562 107.68765625 9.77453125 109.0078125 9.8515625 C110.48894531 9.92503906 110.48894531 9.92503906 112 10 C112.33 9.01 112.66 8.02 113 7 C115.45862401 6.94616152 117.9160755 6.90640962 120.375 6.875 C121.42300781 6.84986328 121.42300781 6.84986328 122.4921875 6.82421875 C124.32897486 6.80655733 126.16601963 6.89696739 128 7 C128.99 7.99 128.99 7.99 130 9 C132.36509361 9.30059943 134.74441881 9.49515012 137.125 9.625 C138.40632812 9.69976562 139.68765625 9.77453125 141.0078125 9.8515625 C142.48894531 9.92503906 142.48894531 9.92503906 144 10 C144.33 9.01 144.66 8.02 145 7 C147.97 7 150.94 7 154 7 C154 4.69 154 2.38 154 0 C155.98 0 157.96 0 160 0 C160 10.56 160 21.12 160 32 C158.02 32 156.04 32 154 32 C154 33.98 154 35.96 154 38 C149.38 38 144.76 38 140 38 C140 36.35 140 34.7 140 33 C137.36 32.67 134.72 32.34 132 32 C132 30.02 132 28.04 132 26 C129.03 25.67 126.06 25.34 123 25 C123 23.35 123 21.7 123 20 C117.72 19.67 112.44 19.34 107 19 C107 20.98 107 22.96 107 25 C104.36 25 101.72 25 99 25 C99 27.31 99 29.62 99 32 C96.03 32 93.06 32 90 32 C90 33.98 90 35.96 90 38 C85.38 38 80.76 38 76 38 C76 36.35 76 34.7 76 33 C73.36 32.67 70.72 32.34 68 32 C68.020625 31.030625 68.04125 30.06125 68.0625 29.0625 C68.35618499 26.12534105 68.35618499 26.12534105 67 25 C67 27.31 67 29.62 67 32 C64.03 32 61.06 32 58 32 C58 33.98 58 35.96 58 38 C53.38 38 48.76 38 44 38 C44 36.35 44 34.7 44 33 C41.36 32.67 38.72 32.34 36 32 C36.020625 31.030625 36.04125 30.06125 36.0625 29.0625 C36.35618499 26.12534105 36.35618499 26.12534105 35 25 C35 27.31 35 29.62 35 32 C30.05 32 25.1 32 20 32 C20 30.02 20 28.04 20 26 C19.67 25.67 19.34 25.34 19 25 C19 27.31 19 29.62 19 32 C16.36 32 13.72 32 11 32 C11 33.98 11 35.96 11 38 C7.37 38 3.74 38 0 38 C0 25.46 0 12.92 0 0 Z " fill="#284D7E" transform="translate(0,89)"/>
<path d="M0 0 C1.46385132 0.00616333 1.46385132 0.00616333 2.95727539 0.01245117 C4.02010742 0.01438477 5.08293945 0.01631836 6.17797852 0.01831055 C7.84957031 0.03667969 7.84957031 0.03667969 9.55493164 0.05541992 C10.66545898 0.05606445 11.77598633 0.05670898 12.92016602 0.05737305 C21.19613392 0.10248735 21.19613392 0.10248735 24.61743164 1.24291992 C24.61743164 1.90291992 24.61743164 2.56291992 24.61743164 3.24291992 C25.27743164 3.24291992 25.93743164 3.24291992 26.61743164 3.24291992 C26.64448473 5.65966216 26.66429602 8.07609932 26.67993164 10.49291992 C26.68831055 11.17483398 26.69668945 11.85674805 26.70532227 12.55932617 C26.73697608 19.08001117 26.73697608 19.08001117 25.61743164 22.24291992 C25.28743164 22.57291992 24.95743164 22.90291992 24.61743164 23.24291992 C25.27743164 23.24291992 25.93743164 23.24291992 26.61743164 23.24291992 C26.74243164 26.11791992 26.74243164 26.11791992 26.61743164 29.24291992 C24.61743164 31.24291992 24.61743164 31.24291992 21.63647461 31.4699707 C20.3901123 31.45949707 19.14375 31.44902344 17.85961914 31.43823242 C17.19656769 31.43540253 16.53351624 31.43257263 15.85037231 31.42965698 C13.73087581 31.41845427 11.6118006 31.39335043 9.49243164 31.36791992 C8.05623982 31.3578902 6.62004139 31.34876433 5.18383789 31.34057617 C1.66156536 31.31851493 -1.86046039 31.28398486 -5.38256836 31.24291992 C-5.47361178 20.83488685 -5.47361178 20.83488685 -4.88256836 16.18041992 C-4.4118004 12.09828129 -4.35955969 8.15831414 -4.54272461 4.05541992 C-4.27117199 0.98223903 -2.91401216 0.29710443 0 0 Z " fill="#446189" transform="translate(5.382568359375,128.757080078125)"/>
<path d="M0 0 C0.77915771 0.00410889 1.55831543 0.00821777 2.36108398 0.01245117 C3.20735352 0.01438477 4.05362305 0.01631836 4.92553711 0.01831055 C5.81047852 0.03055664 6.69541992 0.04280273 7.60717773 0.05541992 C8.49598633 0.05606445 9.38479492 0.05670898 10.30053711 0.05737305 C16.90446676 0.10270895 16.90446676 0.10270895 18.04467773 1.24291992 C18.37467773 0.91291992 18.70467773 0.58291992 19.04467773 0.24291992 C21.98217773 0.05541992 21.98217773 0.05541992 25.04467773 0.24291992 C27.76702376 2.96526595 27.3025583 4.47054865 27.31030273 8.27416992 C27.31416992 10.07821289 27.31416992 10.07821289 27.31811523 11.91870117 C27.31038086 13.18069336 27.30264648 14.44268555 27.29467773 15.74291992 C27.30241211 17.00491211 27.31014648 18.2669043 27.31811523 19.56713867 C27.31553711 20.76983398 27.31295898 21.9725293 27.31030273 23.21166992 C27.30804688 24.31961914 27.30579102 25.42756836 27.3034668 26.5690918 C27.04467773 29.24291992 27.04467773 29.24291992 25.04467773 31.24291992 C22.37084961 31.50170898 22.37084961 31.50170898 19.01342773 31.50854492 C17.81073242 31.51112305 16.60803711 31.51370117 15.36889648 31.51635742 C14.1069043 31.50862305 12.84491211 31.50088867 11.54467773 31.49291992 C10.28268555 31.5006543 9.02069336 31.50838867 7.72045898 31.51635742 C6.51776367 31.5137793 5.31506836 31.51120117 4.07592773 31.50854492 C2.96797852 31.50628906 1.8600293 31.5040332 0.71850586 31.50170898 C-1.95532227 31.24291992 -1.95532227 31.24291992 -3.95532227 29.24291992 C-4.22094727 26.09057617 -4.22094727 26.09057617 -4.20532227 22.30541992 C-4.21047852 21.05889648 -4.21563477 19.81237305 -4.22094727 18.52807617 C-3.95532227 15.24291992 -3.95532227 15.24291992 -1.95532227 12.24291992 C-2.61532227 11.58291992 -3.27532227 10.92291992 -3.95532227 10.24291992 C-4.22094727 8.36791992 -4.22094727 8.36791992 -4.20532227 6.24291992 C-4.21047852 5.54166992 -4.21563477 4.84041992 -4.22094727 4.11791992 C-3.82836764 1.3467696 -2.76412119 0.34340125 0 0 Z " fill="#446289" transform="translate(100.955322265625,128.757080078125)"/>
<path d="M0 0 C1.7325 0.061875 1.7325 0.061875 3.5 0.125 C5.52183976 0.125 7.54097086 0.08989491 9.5625 0.0546875 C11.20832871 0.03604543 12.85416234 0.01783415 14.5 0 C15.33273438 -0.01675781 16.16546875 -0.03351563 17.0234375 -0.05078125 C17.82007813 -0.05722656 18.61671875 -0.06367188 19.4375 -0.0703125 C20.16839844 -0.08078613 20.89929688 -0.09125977 21.65234375 -0.10205078 C23.5 0.125 23.5 0.125 25.5 2.125 C25.72705078 5.01416016 25.72705078 5.01416016 25.6953125 8.6640625 C25.68886719 9.96601563 25.68242187 11.26796875 25.67578125 12.609375 C25.65906929 13.98958595 25.64213939 15.36979429 25.625 16.75 C25.61497006 18.13801452 25.60584423 19.52603589 25.59765625 20.9140625 C25.57401863 24.31788026 25.54106867 27.72135506 25.5 31.125 C21.40661348 31.17439115 17.31334202 31.21071501 13.21972656 31.23486328 C11.82679219 31.24492877 10.43387898 31.25858234 9.04101562 31.27587891 C7.0404564 31.3001022 5.03974385 31.31040814 3.0390625 31.3203125 C1.83459473 31.33078613 0.63012695 31.34125977 -0.61083984 31.35205078 C-3.5 31.125 -3.5 31.125 -5.5 29.125 C-5.73046875 27.03125 -5.73046875 27.03125 -5.6875 24.625 C-5.68105469 23.8309375 -5.67460937 23.036875 -5.66796875 22.21875 C-5.5 20.125 -5.5 20.125 -4.5 18.125 C-3.84 18.125 -3.18 18.125 -2.5 18.125 C-2.83 17.609375 -3.16 17.09375 -3.5 16.5625 C-4.82315358 13.33731316 -4.56080906 10.59111634 -4.5 7.125 C-4.70625 6.196875 -4.9125 5.26875 -5.125 4.3125 C-5.24875 3.590625 -5.3725 2.86875 -5.5 2.125 C-3.5 0.125 -3.5 0.125 0 0 Z " fill="#446189" transform="translate(134.5,128.875)"/>
<path d="M0 0 C0.99773438 0.02320313 1.99546875 0.04640625 3.0234375 0.0703125 C4.52777344 0.09738281 4.52777344 0.09738281 6.0625 0.125 C6.83335938 0.14820313 7.60421875 0.17140625 8.3984375 0.1953125 C8.0684375 1.5153125 7.7384375 2.8353125 7.3984375 4.1953125 C9.72919679 3.23665741 9.72919679 3.23665741 11.3984375 0.1953125 C14.3671875 -0.16796875 14.3671875 -0.16796875 17.8984375 -0.1171875 C19.64640625 -0.11138672 19.64640625 -0.11138672 21.4296875 -0.10546875 C24.3984375 0.1953125 24.3984375 0.1953125 26.3984375 2.1953125 C26.76919885 7.01521008 26.15054088 10.70554759 24.3984375 15.1953125 C24.7284375 15.5253125 25.0584375 15.8553125 25.3984375 16.1953125 C25.7284375 15.2053125 26.0584375 14.2153125 26.3984375 13.1953125 C26.45225856 15.82058439 26.49202063 18.44475963 26.5234375 21.0703125 C26.54019531 21.81667969 26.55695313 22.56304687 26.57421875 23.33203125 C26.5918334 25.28725711 26.50163939 27.24273271 26.3984375 29.1953125 C23.67609148 31.91765852 22.17080877 31.45319307 18.3671875 31.4609375 C17.16449219 31.46351563 15.96179688 31.46609375 14.72265625 31.46875 C13.46066406 31.46101563 12.19867188 31.45328125 10.8984375 31.4453125 C9.63644531 31.45304687 8.37445313 31.46078125 7.07421875 31.46875 C5.87152344 31.46617187 4.66882813 31.46359375 3.4296875 31.4609375 C2.32173828 31.45868164 1.21378906 31.45642578 0.07226562 31.45410156 C-2.6015625 31.1953125 -2.6015625 31.1953125 -4.6015625 29.1953125 C-4.83203125 27.3203125 -4.83203125 27.3203125 -4.7890625 25.1953125 C-4.78261719 24.4940625 -4.77617188 23.7928125 -4.76953125 23.0703125 C-4.6015625 21.1953125 -4.6015625 21.1953125 -3.6015625 19.1953125 C-3.9315625 18.5353125 -4.2615625 17.8753125 -4.6015625 17.1953125 C-4.72549716 14.6820328 -4.78671362 12.20861136 -4.7890625 9.6953125 C-4.80130859 9.00566406 -4.81355469 8.31601563 -4.82617188 7.60546875 C-4.83144945 5.80053756 -4.72340708 3.99613408 -4.6015625 2.1953125 C-2.6015625 0.1953125 -2.6015625 0.1953125 0 0 Z " fill="#446289" transform="translate(37.6015625,128.8046875)"/>
<path d="M0 0 C1.21816406 0.03480469 1.21816406 0.03480469 2.4609375 0.0703125 C3.68683594 0.09738281 3.68683594 0.09738281 4.9375 0.125 C5.87722656 0.15980469 5.87722656 0.15980469 6.8359375 0.1953125 C7.4959375 1.8453125 8.1559375 3.4953125 8.8359375 5.1953125 C8.8359375 3.5453125 8.8359375 1.8953125 8.8359375 0.1953125 C11.46120939 0.14149144 14.08538463 0.10172937 16.7109375 0.0703125 C17.45730469 0.05355469 18.20367187 0.03679687 18.97265625 0.01953125 C20.92788211 0.0019166 22.88335771 0.09211061 24.8359375 0.1953125 C26.8359375 2.1953125 26.8359375 2.1953125 27.1015625 4.69140625 C27.09640625 5.66207031 27.09125 6.63273438 27.0859375 7.6328125 C27.09109375 8.60089844 27.09625 9.56898438 27.1015625 10.56640625 C26.8359375 13.1953125 26.8359375 13.1953125 24.8359375 16.1953125 C25.4959375 17.1853125 26.1559375 18.1753125 26.8359375 19.1953125 C27.1015625 21.60546875 27.1015625 21.60546875 27.0859375 24.2578125 C27.09109375 25.13566406 27.09625 26.01351562 27.1015625 26.91796875 C26.8359375 29.1953125 26.8359375 29.1953125 24.8359375 31.1953125 C22.16210938 31.45410156 22.16210938 31.45410156 18.8046875 31.4609375 C17.60199219 31.46351563 16.39929688 31.46609375 15.16015625 31.46875 C13.89816406 31.46101563 12.63617188 31.45328125 11.3359375 31.4453125 C10.07394531 31.45304687 8.81195313 31.46078125 7.51171875 31.46875 C6.30902344 31.46617187 5.10632813 31.46359375 3.8671875 31.4609375 C2.75923828 31.45868164 1.65128906 31.45642578 0.50976562 31.45410156 C-2.1640625 31.1953125 -2.1640625 31.1953125 -4.1640625 29.1953125 C-4.38913634 26.31904421 -4.48836656 23.57078226 -4.4765625 20.6953125 C-4.49267578 19.91027344 -4.50878906 19.12523437 -4.52539062 18.31640625 C-4.52734375 16.0390625 -4.52734375 16.0390625 -4.1640625 12.1953125 C-3.1740625 11.5353125 -2.1840625 10.8753125 -1.1640625 10.1953125 C-0.1740625 10.8553125 0.8159375 11.5153125 1.8359375 12.1953125 C1.0315625 11.5559375 0.2271875 10.9165625 -0.6015625 10.2578125 C-3.1640625 8.1953125 -3.1640625 8.1953125 -4.1640625 7.1953125 C-4.3515625 4.7578125 -4.3515625 4.7578125 -4.1640625 2.1953125 C-2.1640625 0.1953125 -2.1640625 0.1953125 0 0 Z " fill="#446289" transform="translate(69.1640625,128.8046875)"/>
<path d="M0 0 C1.98 0 3.96 0 6 0 C6 6.27 6 12.54 6 19 C1.05 19 -3.9 19 -9 19 C-9 15.04 -9 11.08 -9 7 C-6.03 7 -3.06 7 0 7 C0 4.69 0 2.38 0 0 Z " fill="#47648A" transform="translate(154,89)"/>
<path d="M0 0 C4.62 0 9.24 0 14 0 C14 3.63 14 7.26 14 11 C9.38 11 4.76 11 0 11 C0 7.37 0 3.74 0 0 Z " fill="#47648A" transform="translate(113,97)"/>
<path d="M0 0 C4.62 0 9.24 0 14 0 C14 3.63 14 7.26 14 11 C9.38 11 4.76 11 0 11 C0 7.37 0 3.74 0 0 Z " fill="#47648A" transform="translate(81,97)"/>
<path d="M0 0 C4.62 0 9.24 0 14 0 C14 3.63 14 7.26 14 11 C9.38 11 4.76 11 0 11 C0 7.37 0 3.74 0 0 Z " fill="#47648A" transform="translate(49,97)"/>
<path d="M0 0 C4.62 0 9.24 0 14 0 C14 3.63 14 7.26 14 11 C9.38 11 4.76 11 0 11 C0 7.37 0 3.74 0 0 Z " fill="#47648A" transform="translate(17,97)"/>
<path d="M0 0 C4.95 0 9.9 0 15 0 C15 2.64 15 5.28 15 8 C12.68756208 8.02685412 10.3750373 8.04632841 8.0625 8.0625 C6.77472656 8.07410156 5.48695312 8.08570312 4.16015625 8.09765625 C1 8 1 8 0 7 C0 4.69 0 2.38 0 0 Z " fill="#446188" transform="translate(1,100)"/>
<path d="M0 0 C4.29 0 8.58 0 13 0 C13 2.64 13 5.28 13 8 C8.71 8 4.42 8 0 8 C0 5.36 0 2.72 0 0 Z " fill="#456289" transform="translate(131,100)"/>
<path d="M0 0 C4.29 0 8.58 0 13 0 C13 2.64 13 5.28 13 8 C8.71 8 4.42 8 0 8 C0 5.36 0 2.72 0 0 Z " fill="#456289" transform="translate(99,100)"/>
<path d="M0 0 C4.29 0 8.58 0 13 0 C13 2.64 13 5.28 13 8 C8.71 8 4.42 8 0 8 C0 5.36 0 2.72 0 0 Z " fill="#456289" transform="translate(67,100)"/>
<path d="M0 0 C4.29 0 8.58 0 13 0 C13 2.64 13 5.28 13 8 C8.71 8 4.42 8 0 8 C0 5.36 0 2.72 0 0 Z " fill="#456289" transform="translate(35,100)"/>
<path d="M0 0 C1.98 0 3.96 0 6 0 C6 3.3 6 6.6 6 10 C9.3 10 12.6 10 16 10 C16.33 9.34 16.66 8.68 17 8 C17 11.63 17 15.26 17 19 C16.67 19 16.34 19 16 19 C16 16.36 16 13.72 16 11 C11.05 11 6.1 11 1 11 C1.33 13.64 1.66 16.28 2 19 C1.34 19 0.68 19 0 19 C0 12.73 0 6.46 0 0 Z " fill="#2A4F80" transform="translate(0,89)"/>
<path d="M0 0 C5.28 0 10.56 0 16 0 C16 1.65 16 3.3 16 5 C10.72 5 5.44 5 0 5 C0 3.35 0 1.7 0 0 Z " fill="#2A5081" transform="translate(123,122)"/>
<path d="M0 0 C5.28 0 10.56 0 16 0 C16 1.65 16 3.3 16 5 C10.72 5 5.44 5 0 5 C0 3.35 0 1.7 0 0 Z " fill="#2A5081" transform="translate(91,122)"/>
<path d="M0 0 C5.28 0 10.56 0 16 0 C16 1.65 16 3.3 16 5 C10.72 5 5.44 5 0 5 C0 3.35 0 1.7 0 0 Z " fill="#2A5081" transform="translate(59,122)"/>
<path d="M0 0 C5.28 0 10.56 0 16 0 C16 1.65 16 3.3 16 5 C10.72 5 5.44 5 0 5 C0 3.35 0 1.7 0 0 Z " fill="#2A5081" transform="translate(27,122)"/>
<path d="M0 0 C4.62 0 9.24 0 14 0 C14 1.65 14 3.3 14 5 C9.38 5 4.76 5 0 5 C0 3.35 0 1.7 0 0 Z " fill="#2A5081" transform="translate(140,122)"/>
<path d="M0 0 C4.62 0 9.24 0 14 0 C14 1.65 14 3.3 14 5 C9.38 5 4.76 5 0 5 C0 3.35 0 1.7 0 0 Z " fill="#2B5182" transform="translate(108,122)"/>
<path d="M0 0 C4.62 0 9.24 0 14 0 C14 1.65 14 3.3 14 5 C9.38 5 4.76 5 0 5 C0 3.35 0 1.7 0 0 Z " fill="#2B5182" transform="translate(76,122)"/>
<path d="M0 0 C4.62 0 9.24 0 14 0 C14 1.65 14 3.3 14 5 C9.38 5 4.76 5 0 5 C0 3.35 0 1.7 0 0 Z " fill="#2B5182" transform="translate(44,122)"/>
<path d="M0 0 C4.62 0 9.24 0 14 0 C14 1.65 14 3.3 14 5 C9.38 5 4.76 5 0 5 C0 3.35 0 1.7 0 0 Z " fill="#2A5081" transform="translate(12,122)"/>
<path d="M0 0 C4.62 0 9.24 0 14 0 C14 1.65 14 3.3 14 5 C9.38 5 4.76 5 0 5 C0 3.35 0 1.7 0 0 Z " fill="#2A5081" transform="translate(108,109)"/>
<path d="M0 0 C4.62 0 9.24 0 14 0 C14 1.65 14 3.3 14 5 C9.38 5 4.76 5 0 5 C0 3.35 0 1.7 0 0 Z " fill="#2A5081" transform="translate(76,109)"/>
<path d="M0 0 C4.62 0 9.24 0 14 0 C14 1.65 14 3.3 14 5 C9.38 5 4.76 5 0 5 C0 3.35 0 1.7 0 0 Z " fill="#2A5081" transform="translate(44,109)"/>
<path d="M0 0 C4.62 0 9.24 0 14 0 C14 1.65 14 3.3 14 5 C9.38 5 4.76 5 0 5 C0 3.35 0 1.7 0 0 Z " fill="#2A5081" transform="translate(140,109)"/>
<path d="M0 0 C4.62 0 9.24 0 14 0 C14 1.65 14 3.3 14 5 C9.38 5 4.76 5 0 5 C0 3.35 0 1.7 0 0 Z " fill="#2B5182" transform="translate(12,109)"/>
<path d="M0 0 C1.98 0 3.96 0 6 0 C6 6.27 6 12.54 6 19 C5.67 19 5.34 19 5 19 C5 15.37 5 11.74 5 8 C0.38 8 -4.24 8 -9 8 C-9 7.67 -9 7.34 -9 7 C-6.03 7 -3.06 7 0 7 C0 4.69 0 2.38 0 0 Z " fill="#2B5182" transform="translate(154,89)"/>
<path d="M0 0 C3.63 0 7.26 0 11 0 C11 1.65 11 3.3 11 5 C7.37 5 3.74 5 0 5 C0 3.35 0 1.7 0 0 Z " fill="#2A5081" transform="translate(0,122)"/>
<path d="M0 0 C3.63 0 7.26 0 11 0 C11 1.65 11 3.3 11 5 C7.37 5 3.74 5 0 5 C0 3.35 0 1.7 0 0 Z " fill="#2A4F80" transform="translate(0,109)"/>
<path d="M0 0 C1.32 0 2.64 0 4 0 C4 2.97 4 5.94 4 9 C2.68 9 1.36 9 0 9 C0 6.03 0 3.06 0 0 Z " fill="#46638A" transform="translate(1,90)"/>
<path d="M0 0 C0.66 0 1.32 0 2 0 C2 0.66 2 1.32 2 2 C2.66 2 3.32 2 4 2 C4 2.99 4 3.98 4 5 C-1.445 7.475 -1.445 7.475 -7 10 C-5.86280581 6.58841744 -4.95657056 5.88145399 -2 4 C-1.34 4 -0.68 4 0 4 C0 2.68 0 1.36 0 0 Z " fill="#355A86" transform="translate(28,130)"/>
<path d="M0 0 C0.1875 2.875 0.1875 2.875 0 6 C-0.99 6.66 -1.98 7.32 -3 8 C-3.99 7.67 -4.98 7.34 -6 7 C-6 5.68 -6 4.36 -6 3 C-1.82142857 0 -1.82142857 0 0 0 Z " fill="#2C5686" transform="translate(148,143)"/>
<path d="M0 0 C1.65 0 3.3 0 5 0 C5 1.65 5 3.3 5 5 C3.35 5 1.7 5 0 5 C0 3.35 0 1.7 0 0 Z " fill="#2C5384" transform="translate(155,122)"/>
<path d="M0 0 C1.65 0 3.3 0 5 0 C5 1.65 5 3.3 5 5 C3.35 5 1.7 5 0 5 C0 3.35 0 1.7 0 0 Z " fill="#2A5081" transform="translate(155,109)"/>
<path d="M0 0 C1.32 0 2.64 0 4 0 C4 1.98 4 3.96 4 6 C2.68 6 1.36 6 0 6 C0 4.02 0 2.04 0 0 Z " fill="#46638A" transform="translate(155,90)"/>
<path d="M0 0 C0.99 0 1.98 0 3 0 C3 1.98 3 3.96 3 6 C2.01 6 1.02 6 0 6 C0 4.02 0 2.04 0 0 Z " fill="#2A4F80" transform="translate(0,115)"/>
<path d="M0 0 C2.97 0.33 5.94 0.66 9 1 C9 1.66 9 2.32 9 3 C5.7 3 2.4 3 -1 3 C-0.67 2.01 -0.34 1.02 0 0 Z " fill="#315684" transform="translate(151,157)"/>
</svg>
